<?xml version="1.0" encoding="UTF-8"?>
<svg version="1.1" xmlns="http://www.w3.org/2000/svg" width="96" height="96">
<path d="M0 0 C0.63378067 0.2205455 1.26756134 0.441091 1.92054749 0.6683197 C3.91923345 1.36535555 5.91468252 2.07117139 7.91015625 2.77734375 C9.27518526 3.25514441 10.64041801 3.73236342 12.00585938 4.20898438 C15.33050486 5.37089558 18.65230994 6.54069507 21.97265625 7.71484375 C22.37055566 13.93967387 22.65943365 20.15702023 22.8515625 26.39160156 C22.93166344 28.50717071 23.0406029 30.62186359 23.1796875 32.734375 C24.27343816 49.7840176 24.27343816 49.7840176 20.49057007 54.6027832 C16.7195633 57.84524907 12.45308103 59.90738942 7.90618896 61.85235596 C5.43129868 62.95632624 3.29052121 64.38123674 1.0859375 65.94921875 C0.43818359 66.3771875 -0.20957031 66.80515625 -0.87695312 67.24609375 C-2.15371237 68.09274388 -3.42139182 68.95318283 -4.68164062 69.82421875 C-6.6015625 71.07421875 -6.6015625 71.07421875 -10.02734375 72.71484375 C-13.70232447 71.60851516 -16.93624218 69.73820268 -20.265625 67.8515625 C-21.25111328 67.29404297 -22.23660156 66.73652344 -23.25195312 66.16210938 C-24.78045898 65.29102539 -24.78045898 65.29102539 -26.33984375 64.40234375 C-27.34724609 63.83322266 -28.35464844 63.26410156 -29.39257812 62.67773438 C-32.28090881 61.0388184 -35.16478049 59.39843883 -38.02734375 57.71484375 C-38.7218161 57.40026718 -39.41628845 57.08569061 -40.13180542 56.76158142 C-42.4487244 55.59749498 -44.19066147 54.55142325 -46.02734375 52.71484375 C-47.12566175 49.25855518 -46.96353208 45.97955466 -46.80859375 42.3828125 C-46.79727417 41.39106522 -46.78595459 40.39931793 -46.77429199 39.3775177 C-46.72958958 36.21714144 -46.62923918 33.06134252 -46.52734375 29.90234375 C-46.48720879 27.7572271 -46.45070804 25.61203915 -46.41796875 23.46679688 C-46.32987708 18.21459032 -46.19610787 12.96504394 -46.02734375 7.71484375 C-41.60508977 6.11011982 -37.17615895 4.526053 -32.73999023 2.96020508 C-31.23378051 2.4253786 -29.72950005 1.88508463 -28.22729492 1.33911133 C-26.06009621 0.55254103 -23.88658191 -0.2137128 -21.7109375 -0.9765625 C-21.04710556 -1.22233536 -20.38327362 -1.46810822 -19.69932556 -1.72132874 C-12.51023833 -4.19546684 -6.94956533 -2.44006961 0 0 Z " fill="#3ABAF7" transform="translate(60.02734375,12.28515625)"/>
<path d="M0 0 C1.98 0.66 3.96 1.32 6 2 C5.89937256 2.83547363 5.79874512 3.67094727 5.69506836 4.53173828 C4.7767244 13.67983266 3.87492499 23.20790016 7 32 C13.71296677 39.50195662 22.81960788 42.21712485 32 46 C32 35.11 32 24.22 32 13 C33.98 13 35.96 13 38 13 C38 23.89 38 34.78 38 46 C44.82163194 41.76766926 44.82163194 41.76766926 51.64208984 37.53344727 C52.48980957 37.00807373 53.3375293 36.4827002 54.2109375 35.94140625 C55.51490479 35.13231812 55.51490479 35.13231812 56.84521484 34.30688477 C59 33 59 33 61 32 C61 22.1 61 12.2 61 2 C63.31 1.34 65.62 0.68 68 0 C70.51493386 31.1609978 70.51493386 31.1609978 66.6875 38.52539062 C63.22574078 42.09532982 58.95799899 43.60082917 54.30615234 45.11621094 C50.24959063 46.67081113 46.85880144 49.2797202 43.3125 51.75 C40.8805948 53.43935236 38.69847064 54.70768795 36 56 C32.32501928 54.89367141 29.09110157 53.02335893 25.76171875 51.13671875 C24.28348633 50.30043945 24.28348633 50.30043945 22.77539062 49.44726562 C21.75638672 48.86654297 20.73738281 48.28582031 19.6875 47.6875 C18.68009766 47.11837891 17.67269531 46.54925781 16.63476562 45.96289062 C14.65523883 44.83965425 12.68778644 43.69483345 10.73388672 42.52758789 C8.10625011 40.95976712 8.10625011 40.95976712 5.50439453 40.11108398 C2.83305229 39.03881798 1.65417799 38.38342999 0 36 C-1.00123274 29.87127816 -0.75062722 23.87219954 -0.5 17.6875 C-0.45985496 15.97599396 -0.42335593 14.26439825 -0.390625 12.55273438 C-0.30262359 8.36627423 -0.16469159 4.1841166 0 0 Z " fill="#4443BD" transform="translate(14,29)"/>
<path d="M0 0 C4.104375 1.629375 8.20875 3.25875 12.4375 4.9375 C14.38160767 5.70694946 14.38160767 5.70694946 16.36499023 6.49194336 C17.37762939 6.89550049 18.39026855 7.29905762 19.43359375 7.71484375 C20.47572021 8.12855225 21.51784668 8.54226074 22.59155273 8.96850586 C25 10 25 10 26 11 C26.08843793 13.44830426 26.11528752 15.86820599 26.09765625 18.31640625 C26.0962413 19.04746078 26.09482635 19.77851532 26.09336853 20.53172302 C26.08775408 22.87535632 26.07519922 25.21889539 26.0625 27.5625 C26.05748686 29.14778508 26.05292363 30.73307166 26.04882812 32.31835938 C26.03777997 36.2122761 26.02050572 40.10612205 26 44 C22.444218 42.65788025 19.20894833 41.07755303 15.91796875 39.1796875 C14.65762817 38.45628174 14.65762817 38.45628174 13.37182617 37.71826172 C12.32099854 37.10998535 11.2701709 36.50170898 10.1875 35.875 C6.825625 33.93625 3.46375 31.9975 0 30 C0 20.1 0 10.2 0 0 Z " fill="#4D50FD" transform="translate(20,31)"/>
<path d="M0 0 C1.35264316 9.45336765 2.73463496 19.71180461 0 29 C-5.35399887 35.91619642 -13.90724217 40.02831681 -22 43 C-22.66 43 -23.32 43 -24 43 C-24 32.11 -24 21.22 -24 10 C-4 0 -4 0 0 0 Z " fill="#F98611" transform="translate(76,32)"/>
<path d="M0 0 C0.33 1.98 0.66 3.96 1 6 C1.66 6 2.32 6 3 6 C3.54767767 9.79993644 3.76416764 13.22074917 3 17 C-1.08594529 21.54884106 -6.30551526 23.10183842 -12 25 C-12 18.07 -12 11.14 -12 4 C-3 0 -3 0 0 0 Z " fill="#EEEEE3" transform="translate(69,41)"/>
<path d="M0 0 C4.95 1.98 9.9 3.96 15 6 C15 13.26 15 20.52 15 28 C13.35 27.01 11.7 26.02 10 25 C9.6875 21.8125 9.6875 21.8125 10 19 C8.35 18.67 6.7 18.34 5 18 C4.67 19.32 4.34 20.64 4 22 C2.68 21.34 1.36 20.68 0 20 C0 13.4 0 6.8 0 0 Z " fill="#E9F2F5" transform="translate(25,39)"/>
<path d="M0 0 C1.02738281 0.32097656 2.05476563 0.64195313 3.11328125 0.97265625 C4.16902344 1.33230469 5.22476563 1.69195313 6.3125 2.0625 C7.38113281 2.42472656 8.44976562 2.78695313 9.55078125 3.16015625 C10.76314453 3.57587891 10.76314453 3.57587891 12 4 C7.07043194 7.87243721 1.95703905 11 -4.4375 11 C-9.11712462 9.68642116 -13.54261147 7.92824655 -18 6 C-18 5.34 -18 4.68 -18 4 C-15.94409546 3.13007846 -13.87994664 2.27962311 -11.8125 1.4375 C-10.66394531 0.96183594 -9.51539063 0.48617188 -8.33203125 -0.00390625 C-4.80677568 -1.05776342 -3.43809162 -1.08800368 0 0 Z " fill="#4A51FE" transform="translate(52,21)"/>
<path d="M0 0 C2.475 0.99 2.475 0.99 5 2 C5 3.65 5 5.3 5 7 C2.525 6.01 2.525 6.01 0 5 C0 3.35 0 1.7 0 0 Z " fill="#5D60FE" transform="translate(30,46)"/>
<path d="M0 0 C0 1.32 0 2.64 0 4 C-1.65 4.66 -3.3 5.32 -5 6 C-4.625 3.5625 -4.625 3.5625 -4 1 C-2 0 -2 0 0 0 Z " fill="#FC9121" transform="translate(67,53)"/>
</svg>
